HIERARCHY
ROOT Hips
{
	OFFSET 0.000000 0.000000 0.000000
	CHANNELS 6 Xposition Yposition Zposition Xrotation Yrotation Zrotation
	JOINT LeftUpLeg_virtual
	{
		OFFSET 0.000000 0.000000 0.000000
		CHANNELS 3 Xrotation Yrotation Zrotation
		JOINT LeftUpLeg
		{
			OFFSET 15.427100 -6.655098 0.678600
			CHANNELS 3 Xrotation Yrotation Zrotation
			JOINT LeftLeg
			{
				OFFSET 4.081073 -39.591068 13.024000
				CHANNELS 3 Xrotation Yrotation Zrotation
				JOINT LeftFoot
				{
					OFFSET -4.081074 -37.707932 -15.979700
					CHANNELS 3 Xrotation Yrotation Zrotation
					JOINT LeftToeBase
					{
						OFFSET 5.346399 -15.068900 20.645000
						CHANNELS 3 Xrotation Yrotation Zrotation
						JOINT LeftToe_End
						{
							OFFSET 2.754700 0.931300 11.300900
							CHANNELS 3 Xrotation Yrotation Zrotation
							End Site
							{
								OFFSET 0 0 0
							}
						}
					}
				}
			}
		}
	}
	JOINT RightUpLeg_virtual
	{
		OFFSET 0.000000 0.000000 0.000000
		CHANNELS 3 Xrotation Yrotation Zrotation
		JOINT RightUpLeg
		{
			OFFSET -15.569500 -6.655098 0.678600
			CHANNELS 3 Xrotation Yrotation Zrotation
			JOINT RightLeg
			{
				OFFSET -4.081825 -39.591045 13.023800
				CHANNELS 3 Xrotation Yrotation Zrotation
				JOINT RightFoot
				{
					OFFSET 4.081824 -37.707954 -15.979600
					CHANNELS 3 Xrotation Yrotation Zrotation
					JOINT RightToeBase
					{
						OFFSET -5.346400 -15.068900 20.645000
						CHANNELS 3 Xrotation Yrotation Zrotation
						JOINT RightToe_End
						{
							OFFSET -2.754700 0.931300 11.300900
							CHANNELS 3 Xrotation Yrotation Zrotation
							End Site
							{
								OFFSET 0 0 0
							}
						}
					}
				}
			}
		}
	}
	JOINT Spine_virtual
	{
		OFFSET 0.000000 0.000000 0.000000
		CHANNELS 3 Xrotation Yrotation Zrotation
		JOINT Spine
		{
			OFFSET -0.279200 12.230698 -2.892100
			CHANNELS 3 Xrotation Yrotation Zrotation
			JOINT Spine1
			{
				OFFSET -0.232667 10.192268 -1.242267
				CHANNELS 3 Xrotation Yrotation Zrotation
				JOINT Spine1_split
				{
					OFFSET -0.232667 10.192268 -1.242267
					CHANNELS 3 Xrotation Yrotation Zrotation
					JOINT Spine2
					{
						OFFSET -0.232667 10.192268 -1.242267
						CHANNELS 3 Xrotation Yrotation Zrotation
						JOINT Neck_virtual
						{
							OFFSET 0.000000 0.000000 0.000000
							CHANNELS 3 Xrotation Yrotation Zrotation
							JOINT Neck
							{
								OFFSET -0.418800 17.814194 8.416900
								CHANNELS 3 Xrotation Yrotation Zrotation
								JOINT Head
								{
									OFFSET 0.000000 7.031097 3.806800
									CHANNELS 3 Xrotation Yrotation Zrotation
									JOINT HeadTop_End
									{
										OFFSET 0.000000 24.646606 12.978600
										CHANNELS 3 Xrotation Yrotation Zrotation
										End Site
										{
											OFFSET 0 0 0
										}
									}
								}
							}
						}
						JOINT LeftShoulder_virtual
						{
							OFFSET 0.000000 0.000000 0.000000
							CHANNELS 3 Xrotation Yrotation Zrotation
							JOINT LeftShoulder
							{
								OFFSET 8.476499 7.247704 -3.868750
								CHANNELS 3 Xrotation Yrotation Zrotation
								JOINT LeftShoulder_split
								{
									OFFSET 8.476499 7.247704 -3.868750
									CHANNELS 3 Xrotation Yrotation Zrotation
									JOINT LeftArm
									{
										OFFSET 9.308998 -2.777710 0.208600
										CHANNELS 3 Xrotation Yrotation Zrotation
										JOINT LeftForeArm
										{
											OFFSET 29.972298 0.000000 0.000000
											CHANNELS 3 Xrotation Yrotation Zrotation
											JOINT LeftHand
											{
												OFFSET 26.026505 0.000000 0.000000
												CHANNELS 3 Xrotation Yrotation Zrotation
												End Site
												{
													OFFSET 0 0 0
												}
											}
										}
									}
								}
							}
						}
						JOINT RightShoulder_virtual
						{
							OFFSET 0.000000 0.000000 0.000000
							CHANNELS 3 Xrotation Yrotation Zrotation
							JOINT RightShoulder
							{
								OFFSET -7.570500 7.247704 -3.868750
								CHANNELS 3 Xrotation Yrotation Zrotation
								JOINT RightShoulder_split
								{
									OFFSET -7.570500 7.247704 -3.868750
									CHANNELS 3 Xrotation Yrotation Zrotation
									JOINT RightArm
									{
										OFFSET -9.308998 -2.777710 0.208500
										CHANNELS 3 Xrotation Yrotation Zrotation
										JOINT RightForeArm
										{
											OFFSET -29.972300 0.000000 0.000000
											CHANNELS 3 Xrotation Yrotation Zrotation
											JOINT RightHand
											{
												OFFSET -26.026505 0.000000 0.000000
												CHANNELS 3 Xrotation Yrotation Zrotation
												End Site
												{
													OFFSET 0 0 0
												}
											}
										}
									}
								}
							}
						}
					}
				}
			}
		}
	}
}
MOTION
Frames: 6
Frame Time: 0.03333333
17.484358 31.546692 -11.562340 0.000000 0.000000 0.000000 3.833310 -24.835043 9.862645 -88.690266 -21.176110 43.699294 67.680420 -10.279352 -1.036498 45.808071 16.442234 -31.776543 -2.223602 -5.506641 -0.849482 0.000000 0.000000 0.000000 1.626727 -23.414066 9.256889 -21.861458 -10.047331 -33.526861 109.935235 26.346900 -12.389999 17.372844 -33.758384 44.668812 15.485912 3.132349 -15.991247 0.000000 0.000000 0.000000 1.527525 -14.492164 8.926700 7.226324 -2.310069 -6.458173 2.838196 -7.195092 -0.211793 0.160663 -0.149308 0.031155 0.000000 0.000000 0.000000 3.039764 -4.674698 -0.974128 -3.570043 8.036124 9.114186 -9.970042 10.439819 1.009763 0.000000 0.000000 0.000000 2.178643 -6.128649 -1.464486 3.353914 -1.558601 -0.704060 -1.566041 1.051648 -0.916973 -0.879015 -13.995815 -45.579212 58.563347 -81.626635 52.131969 0.000000 0.000000 0.000000 4.916717 -5.651520 -1.290111 1.839182 5.690249 5.653821 0.386793 5.579874 5.171494 -26.962798 2.816943 28.965487 -123.004194 76.951384 136.169943 0.000000 0.000000 0.000000 
17.440968 31.607029 -11.582787 0.000000 0.000000 0.000000 3.811704 -24.863613 9.954191 -88.481590 -21.049924 43.749271 67.470227 -10.165324 -1.171201 45.841764 16.582647 -31.639431 -2.267620 -5.509616 -0.946838 0.000000 0.000000 0.000000 1.585688 -23.479257 9.349683 -22.029542 -10.117628 -33.480344 109.927933 26.249436 -12.364852 17.463933 -33.649135 44.462363 16.036483 3.050987 -16.040187 0.000000 0.000000 0.000000 1.408060 -14.533526 8.979307 7.257780 -2.016017 -6.689060 2.760924 -7.238036 -0.297927 0.147939 -0.120019 0.025417 0.000000 0.000000 0.000000 2.919345 -4.741129 -1.063287 -3.985589 7.669144 9.180871 -9.678129 11.391427 1.297691 0.000000 0.000000 0.000000 2.055414 -6.190894 -1.537503 3.330421 -1.756292 -0.120920 -1.580480 1.139900 -0.996786 -0.505796 -13.859188 -45.968027 56.115823 -81.538375 49.751839 0.000000 0.000000 0.000000 4.771670 -5.707433 -1.369230 1.918227 5.984266 6.005608 0.521046 5.686833 5.276255 -25.332321 3.609173 27.014419 -136.264514 74.987431 149.155431 0.000000 0.000000 0.000000 
17.398647 31.641239 -11.604038 0.000000 0.000000 0.000000 3.774731 -24.894544 10.003745 -88.315596 -20.938269 43.838388 67.314479 -10.082820 -1.287647 45.891860 16.640141 -31.500785 -2.300603 -5.511121 -1.033588 0.000000 0.000000 0.000000 1.533764 -23.536007 9.392825 -22.108872 -10.228484 -33.378482 109.896419 26.150826 -12.355599 17.549165 -33.519491 44.290444 16.593557 2.969890 -16.101174 0.000000 0.000000 0.000000 1.297882 -14.579129 8.998603 7.294984 -1.743301 -6.892948 2.669439 -7.284030 -0.393539 0.129823 -0.103681 0.014794 0.000000 0.000000 0.000000 2.802034 -4.811426 -1.150224 -4.374118 7.365653 9.213760 -9.330515 12.376971 1.515193 0.000000 0.000000 0.000000 1.920227 -6.255916 -1.620288 3.285370 -1.881417 0.362498 -1.614571 1.201888 -1.090099 -0.252426 -13.721975 -46.286355 53.818670 -81.359595 47.491555 0.000000 0.000000 0.000000 4.616257 -5.766190 -1.458912 2.001921 6.336954 6.410722 0.642892 5.807309 5.482634 -24.128876 4.107245 25.320841 -145.315034 72.662804 157.974366 0.000000 0.000000 0.000000 
17.350826 31.650036 -11.628735 0.000000 0.000000 0.000000 3.708026 -24.917987 9.996036 -88.191109 -20.833368 43.977700 67.221267 -10.025402 -1.380539 45.953605 16.626467 -31.334244 -2.338571 -5.514962 -1.084274 0.000000 0.000000 0.000000 1.457388 -23.552601 9.375004 -22.082456 -10.398864 -33.217956 109.838745 26.045892 -12.349473 17.628597 -33.399652 44.153089 17.130782 2.893831 -16.176200 0.000000 0.000000 0.000000 1.175993 -14.622673 8.972024 7.336944 -1.489556 -7.078727 2.577983 -7.320979 -0.499802 0.124362 -0.095511 0.005216 0.000000 0.000000 0.000000 2.697611 -4.874854 -1.239797 -4.753944 7.137211 9.226109 -9.012508 13.430853 1.666222 0.000000 0.000000 0.000000 1.794946 -6.312468 -1.713581 3.217500 -1.944403 0.777462 -1.637682 1.257722 -1.141922 -0.101698 -13.607049 -46.554846 51.719893 -81.119377 45.398034 0.000000 0.000000 0.000000 4.476904 -5.815915 -1.558175 2.077603 6.762371 6.895818 0.852895 5.920598 5.703912 -23.016884 4.568557 23.756634 -151.450197 70.344931 163.939949 0.000000 0.000000 0.000000 
17.290184 31.644665 -11.665657 0.000000 0.000000 0.000000 3.617081 -24.941727 9.939570 -88.104775 -20.723002 44.153922 67.180839 -9.978660 -1.445183 46.003882 16.565690 -31.121023 -2.355999 -5.523674 -1.092032 0.000000 0.000000 0.000000 1.355385 -23.506992 9.300488 -21.967041 -10.636234 -33.004871 109.747022 25.937818 -12.347614 17.704718 -33.296947 44.086139 17.535691 2.836031 -16.273417 0.000000 0.000000 0.000000 1.026046 -14.658351 8.909350 7.384824 -1.255289 -7.266287 2.504748 -7.335394 -0.618266 0.128638 -0.099200 -0.006335 0.000000 0.000000 0.000000 2.614131 -4.916650 -1.340418 -5.152881 6.986215 9.232191 -8.789622 14.581129 1.768141 0.000000 0.000000 0.000000 1.694800 -6.349366 -1.820051 3.124603 -1.947389 1.162880 -1.656254 1.288894 -1.101556 -0.018784 -13.513575 -46.809834 49.899340 -80.874842 43.558729 0.000000 0.000000 0.000000 4.373663 -5.848586 -1.664644 2.150984 7.208202 7.402006 1.118340 5.961423 5.950106 -21.685340 5.183214 22.234486 -155.759022 68.202608 168.138862 0.000000 0.000000 0.000000 
17.219402 31.633625 -11.707066 0.000000 0.000000 0.000000 3.509545 -24.946656 9.851150 -88.047695 -20.585879 44.346721 67.149570 -9.929158 -1.487825 46.020124 16.480893 -30.851821 -2.336746 -5.539751 -1.045219 0.000000 0.000000 0.000000 1.235502 -23.412972 9.193817 -21.769322 -10.927767 -32.752277 109.633566 25.825637 -12.359538 17.746626 -33.224513 44.086071 17.796452 2.798511 -16.390299 0.000000 0.000000 0.000000 0.834091 -14.670855 8.835583 7.430652 -1.043980 -7.472870 2.453356 -7.319109 -0.748412 0.146519 -0.109350 -0.009042 0.000000 0.000000 0.000000 2.546995 -4.926775 -1.455673 -5.577329 6.910426 9.238684 -8.703593 15.784388 1.868874 0.000000 0.000000 0.000000 1.617926 -6.356909 -1.941359 3.007981 -1.895268 1.550143 -1.661591 1.314664 -1.006668 0.056463 -13.456140 -47.081334 48.416035 -80.673844 42.030218 0.000000 0.000000 0.000000 4.301502 -5.857993 -1.777232 2.217648 7.622039 7.882096 1.354648 5.950823 6.226509 -19.974168 5.990413 20.718906 -158.929199 66.254624 171.239372 0.000000 0.000000 0.000000 
